<mxfile host="app.diagrams.net" modified="2023-12-02T07:31:01.705Z" agent="Mozilla/5.0 (Windows NT 10.0; Win64; x64) AppleWebKit/537.36 (KHTML, like Gecko) Chrome/117.0.0.0 Safari/537.36 Edg/117.0.2045.43" version="22.1.5" etag="wTTIwrASNcntpOoZzB4d" type="github">
  <diagram name="第 1 页" id="dHUUlhwpItYZ98iIBFSy">
    <mxGraphModel>
      <root>
        <mxCell id="0" />
        <mxCell id="1" parent="0" />
      </root>
    </mxGraphModel>
  </diagram>
</mxfile>
